<?xml version="1.0" encoding="UTF-8" standalone="no"?>
<svg
   width="120"
   height="72"
   viewBox="0 0 120 72"
   fill="none"
   version="1.1"
   id="svg10"
   xmlns="http://www.w3.org/2000/svg"
   xmlns:svg="http://www.w3.org/2000/svg">
  <defs
     id="defs10" />
  <path
     d="m 1.0355889,9.290397 c -5.27457,-21.289316 56.1141101,-0.6766 82.8626101,9.2143 7.353,2.7189 12.1018,9.7672 12.1018,17.6067 0,8.1336 -5.11,15.3814 -12.8331,17.9326 -28.1489,9.2985 -92.0503601,28.758 -82.1313101,10.2513 12.6617101,-23.6238 6.72656,-27.855 0,-55.0049 z"
     fill="#d2e7aa"
     id="path1" />
  <path
     d="m 31.360499,55.179997 c -0.8533,0 -1.58,-0.2267 -2.18,-0.68 -0.5867,-0.4667 -1.0333,-1.06 -1.34,-1.78 -0.2933,-0.7333 -0.44,-1.4933 -0.44,-2.28 0,-0.7333 0.1267,-1.44 0.38,-2.12 0.2667,-0.6933 0.6667,-1.2733 1.2,-1.74 0.5067,-0.4 1.0133,-0.6933 1.52,-0.88 0.5067,-0.1867 1.0067,-0.28 1.5,-0.28 0.8667,0 1.4867,0.2067 1.86,0.62 0.3867,0.4 0.58,0.8733 0.58,1.42 0,0.4533 -0.1267,0.9133 -0.38,1.38 -0.24,0.4533 -0.5733,0.8333 -1,1.14 -0.44,0.3067 -0.94,0.5533 -1.5,0.74 -0.5467,0.1733 -1.1,0.26 -1.66,0.26 -0.4933,0 -0.9733,-0.08 -1.44,-0.24 0.0267,0.6 0.1533,1.16 0.38,1.68 0.2267,0.52 0.5467,0.94 0.96,1.26 0.4267,0.32 0.9467,0.48 1.56,0.48 0.3067,0 0.6533,-0.0467 1.04,-0.14 0.4,-0.0933 0.76,-0.24 1.08,-0.44 0.32,-0.2133 0.5133,-0.4733 0.58,-0.78 0.0267,-0.0933 0.04,-0.2067 0.04,-0.34 0,-0.1333 0,-0.2467 0,-0.34 0,-0.1733 0.0533,-0.3 0.16,-0.38 0.1067,-0.08 0.2267,-0.12 0.36,-0.12 0.12,0 0.2333,0.04 0.34,0.12 0.1067,0.08 0.16,0.2067 0.16,0.38 0,0.1867 0,0.36 0,0.52 0,0.1467 -0.0333,0.3133 -0.1,0.5 -0.16,0.4933 -0.4467,0.8933 -0.86,1.2 -0.4133,0.2933 -0.8733,0.5067 -1.38,0.64 -0.4933,0.1333 -0.9667,0.2 -1.42,0.2 z m -1.44,-5.24 c 0.24,0 0.46,-0.02 0.66,-0.06 0.44,-0.08 0.8733,-0.22 1.3,-0.42 0.44,-0.2 0.8067,-0.4667 1.1,-0.8 0.2933,-0.3467 0.44,-0.7533 0.44,-1.22 0,-0.2933 -0.1067,-0.52 -0.32,-0.68 -0.2133,-0.16 -0.4667,-0.26 -0.76,-0.3 -0.08,-0.0133 -0.16,-0.02 -0.24,-0.02 -0.08,-0.0133 -0.16,-0.02 -0.24,-0.02 -0.5867,0 -1.1133,0.16 -1.58,0.48 -0.4667,0.3067 -0.8533,0.7067 -1.16,1.2 -0.2933,0.4933 -0.4867,1.02 -0.58,1.58 0.2,0.0933 0.42,0.16 0.66,0.2 0.24,0.04 0.48,0.06 0.72,0.06 z m 8.3319,5.16 c -0.0534,0 -0.1067,-0.0067 -0.16,-0.02 -0.0534,0 -0.1,-0.0067 -0.14,-0.02 -0.3334,-0.1067 -0.5934,-0.3067 -0.78,-0.6 -0.1867,-0.2933 -0.3267,-0.64 -0.42,-1.04 -0.08,-0.4 -0.1334,-0.8067 -0.16,-1.22 -0.0134,-0.4133 -0.02,-0.78 -0.02,-1.1 0,-0.4667 -0.0067,-0.92 -0.02,-1.36 0,-0.44 0,-0.88 0,-1.32 0,-0.32 0,-0.6467 0,-0.98 0.0133,-0.3333 0.0266,-0.6733 0.04,-1.02 h -0.7 c -0.16,0 -0.28,-0.0533 -0.36,-0.16 -0.0934,-0.1067 -0.14,-0.2267 -0.14,-0.36 0,-0.12 0.0466,-0.2333 0.14,-0.34 0.08,-0.1067 0.2,-0.16 0.36,-0.16 h 0.76 c 0.0266,-0.5067 0.0466,-1.0533 0.06,-1.64 0.0266,-0.5867 0.04,-1.1267 0.04,-1.62 0,-0.1733 0.0533,-0.3 0.16,-0.38 0.1066,-0.0933 0.2266,-0.14 0.36,-0.14 0.1333,0 0.2533,0.0467 0.36,0.14 0.1066,0.08 0.16,0.2067 0.16,0.38 0,0.4933 -0.0134,1.0333 -0.04,1.62 -0.0267,0.5867 -0.0534,1.1333 -0.08,1.64 h 2.66 c 0.1733,0 0.3,0.0533 0.38,0.16 0.08,0.1067 0.12,0.22 0.12,0.34 0,0.1333 -0.04,0.2533 -0.12,0.36 -0.08,0.1067 -0.2067,0.16 -0.38,0.16 h -2.7 c -0.0134,0.3733 -0.0267,0.74 -0.04,1.1 0,0.3467 0,0.6933 0,1.04 v 2.4 c 0,0.2133 0.0066,0.48 0.02,0.8 0.0133,0.32 0.0333,0.6467 0.06,0.98 0.04,0.3333 0.0933,0.6267 0.16,0.88 0.08,0.24 0.1866,0.3867 0.32,0.44 0.08,0.0267 0.14,0.04 0.18,0.04 0.1066,0 0.2133,-0.02 0.32,-0.06 0.12,-0.0533 0.2266,-0.0933 0.32,-0.12 0.0266,-0.0133 0.06,-0.02 0.1,-0.02 0.04,0 0.0666,0 0.08,0 0.16,0 0.28,0.0533 0.36,0.16 0.08,0.0933 0.12,0.2067 0.12,0.34 0,0.2267 -0.1,0.3933 -0.3,0.5 -0.1067,0.0533 -0.2667,0.1 -0.48,0.14 -0.2134,0.04 -0.4134,0.06 -0.6,0.06 z"
     fill="#000000"
     id="path2" />
  <path
     d="m 40.152499,39.927997 c -0.12,0 -0.24,-0.03 -0.36,-0.09 -0.108,-0.072 -0.168,-0.162 -0.18,-0.27 -0.012,-0.204 -0.018,-0.396 -0.018,-0.576 0,-0.192 0,-0.366 0,-0.522 0,-0.336 0,-0.66 0,-0.972 0.012,-0.324 0.018,-0.696 0.018,-1.116 0,-0.528 -0.006,-1.05 -0.018,-1.566 -0.012,-0.516 -0.018,-1.032 -0.018,-1.548 v -1.368 c 0,-0.156 0.048,-0.27 0.144,-0.342 0.108,-0.084 0.216,-0.126 0.324,-0.126 0.108,0 0.21,0.042 0.306,0.126 0.108,0.072 0.162,0.186 0.162,0.342 v 0.864 c 0.3,-0.396 0.678,-0.738 1.134,-1.026 0.456,-0.3 0.942,-0.45 1.458,-0.45 0.456,0 0.882,0.12 1.278,0.36 0.396,0.228 0.672,0.564 0.828,1.008 0.072,0.192 0.108,0.402 0.108,0.63 0,0.24 -0.048,0.48 -0.144,0.72 -0.096,0.228 -0.252,0.414 -0.468,0.558 -0.096,0.06 -0.192,0.09 -0.288,0.09 -0.12,0 -0.228,-0.042 -0.324,-0.126 -0.084,-0.084 -0.126,-0.186 -0.126,-0.306 0,-0.132 0.048,-0.252 0.144,-0.36 0.096,-0.108 0.168,-0.204 0.216,-0.288 0.06,-0.084 0.09,-0.174 0.09,-0.27 0,-0.108 -0.024,-0.216 -0.072,-0.324 -0.084,-0.252 -0.246,-0.444 -0.486,-0.576 -0.228,-0.132 -0.48,-0.198 -0.756,-0.198 -0.3,0 -0.588,0.084 -0.864,0.252 -0.276,0.168 -0.522,0.354 -0.738,0.558 -0.312,0.3 -0.552,0.666 -0.72,1.098 -0.156,0.432 -0.234,0.864 -0.234,1.296 v 1.53 c 0,0.444 0,0.882 0,1.314 0,0.432 -0.006,0.87 -0.018,1.314 0,0.132 -0.042,0.228 -0.126,0.288 -0.072,0.048 -0.156,0.072 -0.252,0.072 z m 9.4019,0.432 c -0.864,0 -1.572,-0.216 -2.124,-0.648 -0.54,-0.444 -0.936,-1.008 -1.188,-1.692 -0.252,-0.696 -0.378,-1.422 -0.378,-2.178 0,-0.264 0.048,-0.594 0.144,-0.99 0.096,-0.396 0.234,-0.804 0.414,-1.224 0.192,-0.432 0.414,-0.828 0.666,-1.188 0.264,-0.372 0.558,-0.66 0.882,-0.864 0.324,-0.216 0.672,-0.3 1.044,-0.252 0.276,-0.12 0.582,-0.18 0.918,-0.18 0.348,0 0.696,0.066 1.044,0.198 0.36,0.12 0.654,0.306 0.882,0.558 l 0.324,0.342 v -0.054 c 0,-0.156 0.048,-0.27 0.144,-0.342 0.096,-0.072 0.204,-0.108 0.324,-0.108 0.12,0 0.228,0.036 0.324,0.108 0.096,0.072 0.144,0.186 0.144,0.342 0,0.18 -0.03,0.354 -0.09,0.522 -0.048,0.168 -0.114,0.33 -0.198,0.486 0.204,0.42 0.354,0.87 0.45,1.35 0.096,0.468 0.144,0.93 0.144,1.386 0,0.732 -0.156,1.44 -0.468,2.124 -0.312,0.672 -0.756,1.224 -1.332,1.656 -0.576,0.432 -1.266,0.648 -2.07,0.648 z m 0.288,-6.534 c 0.348,0 0.684,-0.054 1.008,-0.162 0.324,-0.12 0.606,-0.294 0.846,-0.522 -0.06,-0.096 -0.132,-0.186 -0.216,-0.27 -0.072,-0.096 -0.15,-0.186 -0.234,-0.27 -0.156,-0.144 -0.366,-0.264 -0.63,-0.36 -0.252,-0.096 -0.504,-0.144 -0.756,-0.144 -0.264,0 -0.504,0.066 -0.72,0.198 -0.204,0.132 -0.306,0.354 -0.306,0.666 0,0.252 0.096,0.462 0.288,0.63 0.204,0.156 0.444,0.234 0.72,0.234 z m -0.288,5.598 c 0.624,0 1.152,-0.168 1.584,-0.504 0.444,-0.348 0.78,-0.786 1.008,-1.314 0.24,-0.54 0.36,-1.098 0.36,-1.674 0,-0.324 -0.03,-0.654 -0.09,-0.99 -0.048,-0.336 -0.138,-0.66 -0.27,-0.972 -0.324,0.264 -0.684,0.462 -1.08,0.594 -0.396,0.132 -0.804,0.198 -1.224,0.198 -0.66,0 -1.146,-0.192 -1.458,-0.576 -0.312,-0.396 -0.462,-0.822 -0.45,-1.278 -0.348,0.384 -0.624,0.846 -0.828,1.386 -0.204,0.54 -0.306,1.056 -0.306,1.548 0,0.6 0.09,1.176 0.27,1.728 0.18,0.552 0.474,1.002 0.882,1.35 0.408,0.336 0.942,0.504 1.602,0.504 z m 8.6334,0.72 c -0.828,0 -1.524,-0.21 -2.088,-0.63 -0.564,-0.432 -0.99,-0.984 -1.278,-1.656 -0.288,-0.672 -0.432,-1.368 -0.432,-2.088 0,-0.636 0.114,-1.26 0.342,-1.872 0.24,-0.612 0.6,-1.122 1.08,-1.53 0.312,-0.276 0.69,-0.48 1.134,-0.612 0.444,-0.144 0.894,-0.216 1.35,-0.216 0.492,0 0.954,0.084 1.386,0.252 0.432,0.168 0.786,0.426 1.062,0.774 0.276,0.348 0.414,0.798 0.414,1.35 0,0.42 -0.162,0.756 -0.486,1.008 -0.12,0.084 -0.234,0.126 -0.342,0.126 -0.108,0 -0.198,-0.036 -0.27,-0.108 -0.06,-0.084 -0.09,-0.186 -0.09,-0.306 0,-0.156 0.048,-0.288 0.144,-0.396 0.084,-0.096 0.126,-0.216 0.126,-0.36 0,-0.228 -0.102,-0.45 -0.306,-0.666 -0.192,-0.228 -0.432,-0.414 -0.72,-0.558 -0.276,-0.144 -0.54,-0.216 -0.792,-0.216 -0.696,0 -1.278,0.168 -1.746,0.504 -0.456,0.324 -0.804,0.75 -1.044,1.278 -0.228,0.516 -0.342,1.056 -0.342,1.62 0,0.564 0.114,1.11 0.342,1.638 0.24,0.516 0.588,0.936 1.044,1.26 0.468,0.324 1.044,0.486 1.728,0.486 0.42,0 0.864,-0.072 1.332,-0.216 0.468,-0.144 0.894,-0.354 1.278,-0.63 0.396,-0.288 0.672,-0.636 0.828,-1.044 0.036,-0.084 0.066,-0.168 0.09,-0.252 0.036,-0.096 0.072,-0.186 0.108,-0.27 0.084,-0.216 0.222,-0.324 0.414,-0.324 0.132,0 0.246,0.06 0.342,0.18 0.108,0.108 0.144,0.246 0.108,0.414 -0.012,0.06 -0.06,0.186 -0.144,0.378 -0.072,0.18 -0.15,0.354 -0.234,0.522 -0.084,0.168 -0.138,0.27 -0.162,0.306 -0.372,0.516 -0.768,0.906 -1.188,1.17 -0.42,0.264 -0.876,0.444 -1.368,0.54 -0.492,0.096 -1.032,0.144 -1.62,0.144 z m 12.353,0.108 c -0.408,0 -0.738,-0.162 -0.99,-0.486 -0.24,-0.324 -0.426,-0.72 -0.558,-1.188 -0.12,-0.48 -0.204,-0.942 -0.252,-1.386 -0.18,0.456 -0.414,0.912 -0.702,1.368 -0.288,0.456 -0.636,0.84 -1.044,1.152 -0.408,0.3 -0.888,0.45 -1.44,0.45 -0.444,0 -0.816,-0.102 -1.116,-0.306 -0.3,-0.216 -0.528,-0.492 -0.684,-0.828 -0.156,-0.348 -0.258,-0.714 -0.306,-1.098 -0.012,-0.144 -0.024,-0.288 -0.036,-0.432 0,-0.144 0,-0.288 0,-0.432 0,-0.66 0.036,-1.314 0.108,-1.962 0.084,-0.66 0.126,-1.32 0.126,-1.98 0,-0.132 -0.012,-0.282 -0.036,-0.45 -0.024,-0.168 -0.09,-0.252 -0.198,-0.252 -0.156,0 -0.27,-0.048 -0.342,-0.144 -0.072,-0.096 -0.108,-0.204 -0.108,-0.324 0,-0.12 0.036,-0.228 0.108,-0.324 0.072,-0.096 0.186,-0.144 0.342,-0.144 0.348,0 0.6,0.102 0.756,0.306 0.168,0.204 0.276,0.45 0.324,0.738 0.048,0.276 0.072,0.528 0.072,0.756 0,0.6 -0.042,1.2 -0.126,1.8 -0.084,0.6 -0.126,1.2 -0.126,1.8 0,0.312 0.018,0.624 0.054,0.936 0.06,0.408 0.162,0.75 0.306,1.026 0.156,0.264 0.45,0.396 0.882,0.396 0.42,0 0.786,-0.138 1.098,-0.414 0.312,-0.288 0.582,-0.642 0.81,-1.062 0.24,-0.432 0.432,-0.876 0.576,-1.332 0.156,-0.456 0.276,-0.858 0.36,-1.206 0.084,-0.312 0.156,-0.636 0.216,-0.972 0.072,-0.336 0.108,-0.672 0.108,-1.008 v -0.72 c 0,-0.144 0.006,-0.27 0.018,-0.378 0.012,-0.12 0.03,-0.204 0.054,-0.252 0.132,-0.168 0.294,-0.252 0.486,-0.252 0.228,0 0.378,0.108 0.45,0.324 0.012,0.036 0.018,0.114 0.018,0.234 0,0.192 -0.012,0.42 -0.036,0.684 -0.024,0.264 -0.042,0.45 -0.054,0.558 -0.036,0.348 -0.06,0.702 -0.072,1.062 -0.012,0.36 -0.018,0.72 -0.018,1.08 0,0.3 0.012,0.648 0.036,1.044 0.036,0.384 0.084,0.768 0.144,1.152 0.072,0.372 0.168,0.696 0.288,0.972 0.084,0.168 0.162,0.3 0.234,0.396 0.072,0.096 0.192,0.144 0.36,0.144 0.156,0 0.282,0.06 0.378,0.18 0.096,0.108 0.144,0.228 0.144,0.36 0,0.084 -0.03,0.162 -0.09,0.234 -0.06,0.084 -0.156,0.138 -0.288,0.162 -0.048,0.012 -0.09,0.018 -0.126,0.018 -0.036,0 -0.072,0 -0.108,0 z m 2.0258,-0.324 c -0.12,0 -0.24,-0.03 -0.36,-0.09 -0.108,-0.072 -0.168,-0.162 -0.18,-0.27 -0.012,-0.204 -0.018,-0.396 -0.018,-0.576 0,-0.192 0,-0.366 0,-0.522 0,-0.336 0,-0.66 0,-0.972 0.012,-0.324 0.018,-0.696 0.018,-1.116 0,-0.528 -0.006,-1.05 -0.018,-1.566 -0.012,-0.516 -0.018,-1.032 -0.018,-1.548 v -1.368 c 0,-0.156 0.048,-0.27 0.144,-0.342 0.108,-0.084 0.216,-0.126 0.324,-0.126 0.108,0 0.21,0.042 0.306,0.126 0.108,0.072 0.162,0.186 0.162,0.342 v 0.864 c 0.3,-0.396 0.678,-0.738 1.134,-1.026 0.456,-0.3 0.942,-0.45 1.458,-0.45 0.456,0 0.882,0.12 1.278,0.36 0.396,0.228 0.672,0.564 0.828,1.008 0.072,0.192 0.108,0.402 0.108,0.63 0,0.24 -0.048,0.48 -0.144,0.72 -0.096,0.228 -0.252,0.414 -0.468,0.558 -0.096,0.06 -0.192,0.09 -0.288,0.09 -0.12,0 -0.228,-0.042 -0.324,-0.126 -0.084,-0.084 -0.126,-0.186 -0.126,-0.306 0,-0.132 0.048,-0.252 0.144,-0.36 0.096,-0.108 0.168,-0.204 0.216,-0.288 0.06,-0.084 0.09,-0.174 0.09,-0.27 0,-0.108 -0.024,-0.216 -0.072,-0.324 -0.084,-0.252 -0.246,-0.444 -0.486,-0.576 -0.228,-0.132 -0.48,-0.198 -0.756,-0.198 -0.3,0 -0.588,0.084 -0.864,0.252 -0.276,0.168 -0.522,0.354 -0.738,0.558 -0.312,0.3 -0.552,0.666 -0.72,1.098 -0.156,0.432 -0.234,0.864 -0.234,1.296 v 1.53 c 0,0.444 0,0.882 0,1.314 0,0.432 -0.006,0.87 -0.018,1.314 0,0.132 -0.042,0.228 -0.126,0.288 -0.072,0.048 -0.156,0.072 -0.252,0.072 z m 8.3759,0.216 c -0.54,0 -0.99,-0.114 -1.35,-0.342 -0.36,-0.24 -0.654,-0.546 -0.882,-0.918 -0.216,-0.384 -0.372,-0.798 -0.468,-1.242 -0.096,-0.456 -0.144,-0.9 -0.144,-1.332 0,-0.852 0.21,-1.686 0.63,-2.502 0.42,-0.816 0.984,-1.464 1.692,-1.944 0.612,-0.408 1.296,-0.612 2.052,-0.612 0.444,0 0.858,0.084 1.242,0.252 0.396,0.168 0.714,0.432 0.954,0.792 0.252,0.348 0.378,0.804 0.378,1.368 0,0.228 -0.03,0.624 -0.09,1.188 -0.06,0.552 -0.09,1.128 -0.09,1.728 0,0.456 0.03,0.888 0.09,1.296 0.072,0.396 0.192,0.72 0.36,0.972 0.18,0.252 0.432,0.378 0.756,0.378 0.156,0 0.27,0.048 0.342,0.144 0.072,0.096 0.108,0.204 0.108,0.324 0,0.108 -0.036,0.21 -0.108,0.306 -0.072,0.096 -0.186,0.144 -0.342,0.144 -0.468,0 -0.852,-0.108 -1.152,-0.324 -0.3,-0.228 -0.528,-0.516 -0.684,-0.864 -0.156,-0.36 -0.258,-0.732 -0.306,-1.116 -0.192,0.372 -0.432,0.738 -0.72,1.098 -0.288,0.348 -0.624,0.636 -1.008,0.864 -0.372,0.228 -0.792,0.342 -1.26,0.342 z m 0,-0.918 c 0.408,0 0.762,-0.12 1.062,-0.36 0.312,-0.252 0.582,-0.576 0.81,-0.972 0.24,-0.396 0.438,-0.822 0.594,-1.278 0.168,-0.456 0.3,-0.894 0.396,-1.314 0.108,-0.432 0.192,-0.798 0.252,-1.098 0.036,-0.204 0.054,-0.39 0.054,-0.558 0,-0.156 -0.018,-0.306 -0.054,-0.45 -0.036,-0.144 -0.102,-0.282 -0.198,-0.414 -0.156,-0.204 -0.36,-0.354 -0.612,-0.45 -0.24,-0.096 -0.498,-0.144 -0.774,-0.144 -0.264,0 -0.534,0.042 -0.81,0.126 -0.264,0.084 -0.498,0.192 -0.702,0.324 -0.576,0.396 -1.044,0.93 -1.404,1.602 -0.348,0.672 -0.522,1.362 -0.522,2.07 0,0.444 0.054,0.894 0.162,1.35 0.108,0.444 0.3,0.816 0.576,1.116 0.288,0.3 0.678,0.45 1.17,0.45 z"
     fill="#000000"
     id="path3" />
  <path
     d="m 37.027099,24.519997 c 0.64,1.68 0.96,3.36 0.96,5.04 0,3.72 -1.62,6.76 -4.86,9.12 -3.24,2.32 -7.72,3.66 -13.44,4.02 0.04,1.4 0.06,3.46 0.06,6.18 0,2.64 -0.02,4.58 -0.06,5.82 0,0.2 -0.12,0.3 -0.36,0.3 l -1.62,-0.18 c -0.08,0 -0.16,-0.02 -0.24,-0.06 -0.04,-0.08 -0.06,-0.16 -0.06,-0.24 0.04,-1.28 0.06,-3.3 0.06,-6.06 0,-5.68 -0.14,-11.6 -0.42,-17.76 -0.24,-6.2 -0.58,-11.76 -1.02,-16.68 h 0.06 c 0.44,-0.04 1.08,-0.06 1.92,-0.06 2.88,0 5.64,0.46 8.28,1.38 2.68,0.92 4.96,2.2 6.84,3.84 1.88,1.6 3.18,3.38 3.9,5.34 z m -17.34,15.9 c 5.04,-0.32 8.96,-1.44 11.76,-3.36 2.8,-1.96 4.2,-4.5 4.2,-7.62 0,-1.36 -0.26,-2.76 -0.78,-4.2 -0.56,-1.6 -1.68,-3.08 -3.36,-4.44 -1.68,-1.36 -3.68,-2.44 -6,-3.24 -2.32,-0.84 -4.66,-1.28 -7.02,-1.32 0.6,7.16 1,15.22 1.2,24.18 z"
     fill="#000000"
     id="path4" />
  <path
     d="m 47.664499,49.313397 c -1.0297,1.4596 -0.5723,3.4108 1.0123,4.3377 l 2.6173,1.5308 c 1.7812,1.0419 3.8229,0.3597 4.529,-1.5245 0.7395,-1.9789 -0.1805,-4.4933 -2.0547,-5.5895 -2.0326,-1.1889 -4.7809,-0.6276 -6.1039,1.2455 z"
     fill="#66997b"
     stroke="#66997b"
     stroke-width="1.5"
     stroke-linecap="round"
     stroke-linejoin="round"
     id="path5" />
  <path
     d="m 53.851899,46.333097 c 0.7544,0.4413 1.714,0.204 2.1433,-0.53 0.4293,-0.7339 0.1658,-1.6866 -0.5887,-2.1279 -0.7544,-0.4413 -1.714,-0.204 -2.1433,0.53 -0.4293,0.7339 -0.1657,1.6866 0.5887,2.1279 z"
     fill="#66997b"
     stroke="#66997b"
     stroke-width="1.5"
     stroke-linecap="round"
     stroke-linejoin="round"
     id="path6" />
  <path
     d="m 57.210399,49.153697 c 0.6036,0.353 1.3713,0.1632 1.7147,-0.424 0.3434,-0.5871 0.1326,-1.3493 -0.471,-1.7023 -0.6035,-0.353 -1.3712,-0.1632 -1.7146,0.4239 -0.3435,0.5872 -0.1326,1.3494 0.4709,1.7024 z"
     fill="#66997b"
     stroke="#66997b"
     stroke-width="1.5"
     stroke-linecap="round"
     stroke-linejoin="round"
     id="path7" />
  <path
     d="m 57.988399,52.462597 c 0.4526,0.2647 1.0284,0.1224 1.286,-0.318 0.2576,-0.4404 0.0994,-1.012 -0.3532,-1.2768 -0.4527,-0.2647 -1.0284,-0.1224 -1.286,0.318 -0.2576,0.4404 -0.0995,1.012 0.3532,1.2768 z"
     fill="#66997b"
     stroke="#66997b"
     stroke-width="1.5"
     stroke-linecap="round"
     stroke-linejoin="round"
     id="path8" />
  <path
     d="m 49.305199,45.956697 c 0.6035,0.353 1.3712,0.1632 1.7146,-0.424 0.3435,-0.5872 0.1326,-1.3493 -0.4709,-1.7023 -0.6036,-0.3531 -1.3713,-0.1632 -1.7147,0.4239 -0.3434,0.5872 -0.1326,1.3494 0.471,1.7024 z"
     fill="#66997b"
     stroke="#66997b"
     stroke-width="1.5"
     stroke-linecap="round"
     stroke-linejoin="round"
     id="path9" />
  <path
     d="m 120,34.499997 c 0,11.2666 -18.32,17.5 -25.500001,17.5 -7.1797,0 7.186001,-1.9755 7.186001,-13.2421 0,-11.2666 -10.686001,-20.7579 -10.686001,-20.7579 7.1797,0 29.000001,5.2334 29.000001,16.5 z"
     fill="#66997b"
     id="path10" />
</svg>
